<svg width="300" height="44" viewBox="0,0,320,44" style="overflow: visible; display: block;" xmlns="http://www.w3.org/2000/svg" xmlns:xlink="http://www.w3.org/1999/xlink"><g><rect x="3" y="18" width="17" height="10" fill="#99000d"></rect><rect x="20" y="18" width="17" height="10" fill="#cb181e"></rect><rect x="37" y="18" width="17" height="10" fill="#ef3c2c"></rect><rect x="54" y="18" width="17" height="10" fill="#fb6a4a"></rect><rect x="71" y="18" width="17" height="10" fill="#fc9272"></rect><rect x="88" y="18" width="17" height="10" fill="#fcbba1"></rect><rect x="105" y="18" width="17" height="10" fill="#c7e9c0"></rect><rect x="122" y="18" width="17" height="10" fill="#a1d99b"></rect><rect x="139" y="18" width="17" height="10" fill="#74c476"></rect><rect x="156" y="18" width="17" height="10" fill="#41ab5d"></rect><rect x="173" y="18" width="17" height="10" fill="#238b45"></rect><rect x="190" y="18" width="17" height="10" fill="#005a31"></rect></g><g transform="translate(0,28)" fill="none" font-size="10" font-family="sans-serif" text-anchor="middle"><g class="tick" opacity="1" transform="translate(7,0)"><line stroke="currentColor" y2="0"></line><text fill="currentColor" y="3" dy="0.71em">0</text></g><g class="tick" opacity="1" transform="translate(25,0)"><line stroke="currentColor" y2="0"></line><text fill="currentColor" y="3" dy="0.71em">10</text></g><g class="tick" opacity="1" transform="translate(43,0)"><line stroke="currentColor" y2="0"></line><text fill="currentColor" y="3" dy="0.71em">20</text></g><g class="tick" opacity="1" transform="translate(60,0)"><line stroke="currentColor" y2="0"></line><text fill="currentColor" y="3" dy="0.71em">30</text></g><g class="tick" opacity="1" transform="translate(77,0)"><line stroke="currentColor" y2="0"></line><text fill="currentColor" y="3" dy="0.71em">40</text></g><g class="tick" opacity="1" transform="translate(94,0)"><line stroke="currentColor" y2="0"></line><text fill="currentColor" y="3" dy="0.71em">50</text></g><g class="tick" opacity="1" transform="translate(112,0)"><line stroke="currentColor" y2="0"></line><text fill="currentColor" y="3" dy="0.71em">60</text></g><g class="tick" opacity="1" transform="translate(129,0)"><line stroke="currentColor" y2="0"></line><text fill="currentColor" y="3" dy="0.71em">70</text></g><g class="tick" opacity="1" transform="translate(147,0)"><line stroke="currentColor" y2="0"></line><text fill="currentColor" y="3" dy="0.71em">80</text></g><g class="tick" opacity="1" transform="translate(165,0)"><line stroke="currentColor" y2="0"></line><text fill="currentColor" y="3" dy="0.71em">90</text></g><g class="tick" opacity="1" transform="translate(181,0)"><line stroke="currentColor" y2="0"></line><text fill="currentColor" y="3" dy="0.71em">95</text></g><g class="tick" opacity="1" transform="translate(199,0)"><line stroke="currentColor" y2="0"></line><text fill="currentColor" y="3" dy="0.71em">100</text></g><text x="0" y="-16" fill="currentColor" text-anchor="start" font-weight="bold" class="title">Andel fullt vaccinerade av regionens befolkning i %</text></g></svg>