<svg width="300" height="44" viewBox="0,0,320,44" style="overflow: visible; display: block;" xmlns="http://www.w3.org/2000/svg" xmlns:xlink="http://www.w3.org/1999/xlink"><g><rect x="3" y="18" width="15" height="10" fill="#99000d"/><rect x="18" y="18" width="15" height="10" fill="#cb181e"/><rect x="33" y="18" width="15" height="10" fill="#ef3c2c"/><rect x="48" y="18" width="15" height="10" fill="#fb6a4a"/><rect x="63" y="18" width="15" height="10" fill="#fc9272"/><rect x="78" y="18" width="15" height="10" fill="#fcbba1"/><rect x="93" y="18" width="15" height="10" fill="#fee5d9"/><rect x="108" y="18" width="15" height="10" fill="#fff5f0"/><rect x="123" y="18" width="15" height="10" fill="#f7fcf5"/><rect x="138" y="18" width="15" height="10" fill="#edf8e9"/><rect x="153" y="18" width="15" height="10" fill="#c7e9c0"/><rect x="168" y="18" width="15" height="10" fill="#a1d99b"/><rect x="183" y="18" width="15" height="10" fill="#74c476"/><rect x="198" y="18" width="15" height="10" fill="#41ab5d"/><rect x="213" y="18" width="15" height="10" fill="#238b45"/><rect x="228" y="18" width="15" height="10" fill="#005a31"/></g><g transform="translate(0,28)" fill="none" font-size="10" font-family="sans-serif" text-anchor="middle"><g class="tick" opacity="1" transform="translate(7,0)"><line stroke="currentColor" y2="0"/><text fill="currentColor" y="3" dy="0.71em">0</text></g><g class="tick" opacity="1" transform="translate(22,0)"><line stroke="currentColor" y2="0"/><text fill="currentColor" y="3" dy="0.71em">1</text></g><g class="tick" opacity="1" transform="translate(37,0)"><line stroke="currentColor" y2="0"/><text fill="currentColor" y="3" dy="0.71em">2</text></g><g class="tick" opacity="1" transform="translate(52,0)"><line stroke="currentColor" y2="0"/><text fill="currentColor" y="3" dy="0.71em">3</text></g><g class="tick" opacity="1" transform="translate(67,0)"><line stroke="currentColor" y2="0"/><text fill="currentColor" y="3" dy="0.71em">4</text></g><g class="tick" opacity="1" transform="translate(82,0)"><line stroke="currentColor" y2="0"/><text fill="currentColor" y="3" dy="0.71em">5</text></g><g class="tick" opacity="1" transform="translate(97,0)"><line stroke="currentColor" y2="0"/><text fill="currentColor" y="3" dy="0.71em">6</text></g><g class="tick" opacity="1" transform="translate(112,0)"><line stroke="currentColor" y2="0"/><text fill="currentColor" y="3" dy="0.71em">7</text></g><g class="tick" opacity="1" transform="translate(127,0)"><line stroke="currentColor" y2="0"/><text fill="currentColor" y="3" dy="0.71em">8</text></g><g class="tick" opacity="1" transform="translate(142,0)"><line stroke="currentColor" y2="0"/><text fill="currentColor" y="3" dy="0.71em">9</text></g><g class="tick" opacity="1" transform="translate(157,0)"><line stroke="currentColor" y2="0"/><text fill="currentColor" y="3" dy="0.71em">10</text></g><g class="tick" opacity="1" transform="translate(172,0)"><line stroke="currentColor" y2="0"/><text fill="currentColor" y="3" dy="0.71em">11</text></g><g class="tick" opacity="1" transform="translate(187,0)"><line stroke="currentColor" y2="0"/><text fill="currentColor" y="3" dy="0.71em">12</text></g><g class="tick" opacity="1" transform="translate(202,0)"><line stroke="currentColor" y2="0"/><text fill="currentColor" y="3" dy="0.71em">13</text></g><g class="tick" opacity="1" transform="translate(217,0)"><line stroke="currentColor" y2="0"/><text fill="currentColor" y="3" dy="0.71em">14</text></g><g class="tick" opacity="1" transform="translate(232,0)"><line stroke="currentColor" y2="0"/><text fill="currentColor" y="3" dy="0.71em">15</text></g><text x="0" y="-16" fill="currentColor" text-anchor="start" font-weight="bold" class="title">Andel fullt vaccinerade av regionens befolkning i %</text></g></svg>